<svg xmlns="http://www.w3.org/2000/svg" viewBox="0 0 64 64" width="64" height="64"><title>url</title><g class="nc-icon-wrapper" fill="#111111"><path fill="#111111" d="M30.204,39.452c0.879,2.905,0.174,6.191-2.118,8.484l-7.575,7.575c-3.314,3.314-8.707,3.314-12.021,0 s-3.314-8.707,0-12.021l7.575-7.575c1.657-1.657,3.834-2.485,6.011-2.485c0.834,0,1.668,0.124,2.473,0.367l3.066-3.066 c-4.672-2.307-10.494-1.529-14.378,2.356l-7.575,7.575c-4.874,4.874-4.874,12.804,0,17.678c2.437,2.438,5.638,3.655,8.839,3.655 s6.402-1.218,8.839-3.655l7.575-7.575c3.884-3.884,4.662-9.705,2.356-14.377L30.204,39.452z"/> <path fill="#111111" d="M39.452,30.204c2.905,0.879,6.191,0.174,8.484-2.118l7.575-7.575c3.314-3.314,3.314-8.707,0-12.021 s-8.707-3.314-12.021,0l-7.575,7.575c-1.657,1.657-2.485,3.834-2.485,6.011c0,0.834,0.124,1.668,0.367,2.473l-3.066,3.066 c-2.307-4.672-1.529-10.494,2.356-14.378l7.575-7.575c4.874-4.874,12.804-4.874,17.678,0c2.438,2.437,3.655,5.638,3.655,8.839 s-1.218,6.402-3.655,8.839l-7.575,7.575c-3.884,3.884-9.705,4.662-14.377,2.356L39.452,30.204z"/> <path data-color="color-2" d="M22,44c-0.512,0-1.023-0.195-1.414-0.586c-0.781-0.781-0.781-2.047,0-2.828l20-20 c0.781-0.781,2.047-0.781,2.828,0s0.781,2.047,0,2.828l-20,20C23.023,43.805,22.512,44,22,44z"/></g></svg>