<svg xmlns="http://www.w3.org/2000/svg" viewBox="0 0 64 64" width="64" height="64"><title>globe</title><g class="nc-icon-wrapper" fill="#111111"><path fill="#111111" d="M32,1C14.906,1,1,14.907,1,32s13.906,31,31,31s31-13.907,31-31S49.094,1,32,1z M55.904,44.533h-8.07 c0.948-3.531,1.507-7.428,1.586-11.533h9.556C58.823,37.15,57.731,41.063,55.904,44.533z M36.897,58.547 c-1.271,0.234-2.571,0.379-3.897,0.428V46.533h12.187C43.307,52.126,40.376,56.429,36.897,58.547z M18.813,46.533H31v12.441 c-1.326-0.049-2.626-0.194-3.897-0.428C23.624,56.429,20.693,52.126,18.813,46.533z M5.025,33h9.556 c0.079,4.105,0.638,8.003,1.586,11.533h-8.07C6.269,41.063,5.177,37.15,5.025,33z M8.096,19.467h8.07 C15.219,22.997,14.66,26.895,14.581,31H5.025C5.177,26.85,6.269,22.937,8.096,19.467z M27.103,5.453 C28.374,5.219,29.674,5.074,31,5.025v12.441H18.813C20.693,11.874,23.624,7.571,27.103,5.453z M45.187,17.467H33V5.025 c1.326,0.049,2.626,0.194,3.897,0.428C40.376,7.571,43.307,11.874,45.187,17.467z M45.795,19.467 C46.763,22.96,47.339,26.866,47.42,31H33V19.467H45.795z M31,19.467V31H16.58c0.081-4.134,0.657-8.04,1.625-11.533H31z M16.58,33H31 v11.533H18.205C17.237,41.04,16.661,37.134,16.58,33z M33,44.533V33h14.42c-0.081,4.134-0.657,8.04-1.625,11.533H33z M49.419,31 c-0.079-4.105-0.638-8.003-1.586-11.533h8.07c1.827,3.47,2.919,7.383,3.071,11.533H49.419z M54.737,17.467h-7.492 c-1.422-4.401-3.47-8.121-5.934-10.811C46.876,8.707,51.58,12.545,54.737,17.467z M22.69,6.656 c-2.464,2.69-4.511,6.411-5.934,10.811H9.263C12.42,12.545,17.124,8.707,22.69,6.656z M9.263,46.533h7.492 c1.422,4.401,3.47,8.121,5.934,10.811C17.124,55.293,12.42,51.455,9.263,46.533z M41.31,57.344c2.464-2.69,4.511-6.411,5.934-10.811 h7.492C51.58,51.455,46.876,55.293,41.31,57.344z"/></g></svg>